        <svg version="1.1" xmlns="http://www.w3.org/2000/svg" xmlns:xlink="http://www.w3.org/1999/xlink" x="0px" y="0px" viewBox="0 0 237.436 119.988" enable-background="new 0 0 237.436 119.988" xml:space="preserve" preserveAspectRatio="xMinYMin meet"><path fill="#2774AE" d="M44.27,54.991c-0.011,0.013-0.022,0.026-0.033,0.039c28.068-11.335,56.663-21.368,85.704-29.896
                        C166.096,14.517,204.297,5.994,237.436,0H103.492C81.323,16.445,61.633,34.86,44.27,54.991z"></path><path fill="#2774AE" d="M44.237,55.03c-0.013,0.005-0.027,0.011-0.04,0.016c-9.148,3.695-18.241,7.527-27.275,11.492
                        C11.471,68.931,5.759,71.274,0,73.695v46.294c6.98-13.504,15.079-27.081,25.101-40.846C31.134,70.856,37.519,62.821,44.237,55.03z"></path><path fill="#48A9C5" d="M44.197,55.046c0.002-0.001,0.004-0.003,0.005-0.004c0.023-0.018,0.045-0.034,0.068-0.051
                        C61.635,34.859,81.329,16.444,103.502,0H85.466c-13.625,3.47-27.28,6.879-40.687,10.989C29.551,15.657,14.547,21.272,0,27.878
                        v45.817c5.759-2.42,11.471-4.763,16.922-7.156C25.955,62.573,35.048,58.741,44.197,55.046z"></path><path fill="#B3D57D" d="M85.466,0H0v27.878c14.547-6.606,29.551-12.221,44.779-16.889C58.186,6.879,71.841,3.47,85.466,0z"></path>
        </svg>        
